<svg xmlns="http://www.w3.org/2000/svg" width="61" height="40" viewBox="0 0 61 40" fill="none">
  <g style="mix-blend-mode:luminosity">
    <path d="M22.6415 28.3846L25.405 11.7593H29.8251L27.0596 28.3846H22.6415Z" fill="#0E4595"/>
    <path d="M43.0288 12.1178C42.1532 11.781 40.781 11.4196 39.0673 11.4196C34.6996 11.4196 31.6231 13.6744 31.5968 16.9061C31.5722 19.295 33.7932 20.6276 35.4699 21.4229C37.1904 22.2379 37.7688 22.7576 37.7606 23.4851C37.7495 24.5996 36.3866 25.1086 35.116 25.1086C33.347 25.1086 32.4071 24.8566 30.9554 24.236L30.3857 23.9717L29.7654 27.6934C30.7978 28.1576 32.7069 28.5596 34.6892 28.5805C39.3357 28.5805 42.352 26.3514 42.3863 22.9003C42.4028 21.009 41.2252 19.5699 38.675 18.3833C37.1301 17.6142 36.1839 17.101 36.1939 16.3222C36.1939 15.6312 36.9948 14.8923 38.7254 14.8923C40.1707 14.8692 41.2178 15.1924 42.0337 15.5292L42.4297 15.721L43.0288 12.1178Z" fill="#0E4595"/>
    <path d="M54.403 11.7592H50.9875C49.9294 11.7592 49.1376 12.0552 48.6729 13.1378L42.1084 28.3737H46.75C46.75 28.3737 47.5088 26.3252 47.6804 25.8753C48.1876 25.8753 52.6968 25.8825 53.3413 25.8825C53.4735 26.4645 53.8791 28.3737 53.8791 28.3737H57.9807L54.403 11.7592ZM48.9839 22.4944C49.3495 21.5366 50.7451 17.847 50.7451 17.847C50.719 17.8912 51.108 16.8844 51.3311 16.2602L51.6299 17.6936C51.6299 17.6936 52.4762 21.6621 52.6531 22.4942H48.9839V22.4944Z" fill="#0E4595"/>
    <path d="M3.39631 11.7593L3.33984 12.1051C5.08717 12.5387 6.64778 13.1664 8.01412 13.9471L11.9362 28.3579L16.6129 28.3526L23.5717 11.7593H18.8892L14.5618 23.0965L14.1009 20.7924C14.0793 20.7212 14.0558 20.6499 14.0318 20.5784L12.5274 13.1629C12.2599 12.1101 11.4839 11.796 10.5239 11.7593H3.39631Z" fill="#0E4595"/>
  </g>
</svg>